<svg version="1.1" id="Layer_1" xmlns="http://www.w3.org/2000/svg" xmlns:xlink="http://www.w3.org/1999/xlink" x="0px" y="0px" viewBox="0 0 166.1 46.3" style="enable-background:new 0 0 166.1 46.3;" xml:space="preserve">
 <style type="text/css">
  .st0{fill:#DC291E;}
 </style>
 <g>
  <path class="st0" d="M19.9,3.6c-1.1-1.2-2.4-2-3.7-2.6c-1.3-0.6-2.8-0.9-4.3-0.9c-3.3,0-6.1,1.3-8.4,3.8C1.2,6.5,0,9.7,0,13.7
		c0,3.8,1.2,7,3.6,9.6s5.2,3.9,8.5,3.9c1.5,0,2.8-0.3,4.1-0.8c1.2-0.5,2.5-1.4,3.7-2.6v2.7h6.4V0.8h-6.4C19.9,0.8,19.9,3.6,19.9,3.6
		z M18.2,19.1c-1.3,1.4-3,2.1-5,2.1c-1.9,0-3.6-0.7-4.9-2.2c-1.3-1.4-2-3.3-2-5.5s0.7-4,2-5.4S11.2,6,13.2,6s3.7,0.7,5,2.1
		s1.7,3,1.7,5.2C20,15.6,19.6,17.7,18.2,19.1z M63,3.6c-1.1-1.2-2.4-2-3.7-2.6C58,0.4,56.5,0.1,55,0.1c-3.3,0-6.1,1.3-8.4,3.8
		c-2.3,2.5-3.5,5.8-3.5,9.7c0,3.8,1.2,7,3.6,9.6c2.4,2.6,5.2,3.9,8.5,3.9c1.5,0,2.8-0.3,4.1-0.8c1.2-0.5,2.5-1.4,3.7-2.6v2.7h6.4
		V0.8H63V3.6z M61.3,19.1c-1.3,1.4-3,2.1-5,2.1c-1.9,0-3.6-0.7-4.9-2.2c-1.3-1.4-2-3.3-2-5.5s0.7-4,2-5.4S54.3,6,56.3,6
		s3.7,0.7,5,2.1s1.7,3,1.7,5.2C63.1,15.6,62.7,17.7,61.3,19.1z M107.9,1.4c-1.4-0.9-3-1.3-4.8-1.3s-3.4,0.4-4.8,1.2
		c-1.5,0.8-2.7,1.9-3.7,3.5c-0.8-1.5-1.8-2.7-3.1-3.5c-1.3-0.8-2.7-1.2-4.3-1.2c-1.6,0-3,0.3-4.4,0.9c-1.3,0.6-2.5,1.5-3.6,2.7v-3
		h-6.4v25.7h6.4V15c0-2.5,0.2-4.3,0.6-5.4s1.1-2,2-2.7c0.9-0.6,1.8-1,2.9-1c1,0,1.8,0.3,2.4,0.8C87.8,7.2,88.3,8,88.6,9
		s0.5,2.7,0.5,5v12.4h6.4V14.8c0-2.4,0.2-4.2,0.6-5.3c0.4-1.1,1.1-2,1.9-2.6c0.9-0.6,1.9-0.9,3-0.9c1.4,0,2.5,0.5,3.2,1.5
		s1.1,3,1.1,5.9v13h6.4v-15c0-3.1-0.3-5.3-0.9-6.7C110.3,3.4,109.3,2.3,107.9,1.4z M134.1,18.9c-1.7,1.7-3.8,2.6-6.1,2.6
		c-2,0-3.6-0.6-4.9-1.6c-1.3-1.1-2.1-2.6-2.4-4.4h20.5v-1.2c0-4.2-1.3-7.6-3.8-10.2s-5.8-3.9-9.8-3.9c-3.8,0-6.9,1.3-9.4,3.9
		s-3.8,5.8-3.8,9.8c0,3.8,1.3,7,3.8,9.6c2.5,2.5,5.8,3.8,9.7,3.8c2.6,0,4.8-0.5,6.7-1.4s3.5-2.3,4.8-4.3L134.1,18.9z M123.4,7.1
		c1.3-1,2.9-1.5,4.7-1.5c1.6,0,3.1,0.4,4.3,1.3s2.1,2,2.5,3.4H121C121.7,8.8,122.5,7.7,123.4,7.1z M156.4,12.9l8.7-12.1h-7.3l-5,7
		l-5-7h-7.4l8.7,12.2l-9.7,13.5h7.3l6-8.4l6,8.4h7.4L156.4,12.9z M41.7,0c-1.2,0-2.2,0.2-3.1,0.7c-0.9,0.4-1.8,1.2-2.9,2.4V0.9h-6.1
		v25.7H36V13.2c0-4.9,1.3-7.3,4.6-7.3c0.6,0,1.1,0.1,1.7,0.3c1-1.8,2.3-3.4,3.6-4.9C44.5,0.4,43.1,0,41.7,0z">
  </path>
  <g>
   <path class="st0" d="M9.2,43.2H8.6l-0.3-0.6c-0.6,0.5-1.3,0.8-2,0.8c-0.9,0-1.7-0.3-2.2-0.8c-0.7-0.6-1-1.6-1-2.9
			c0-2.5,1-3.7,3.1-3.7c0.7,0,1.4,0.2,2.1,0.7c-0.1-0.2-0.1-0.4-0.1-0.6V33h1V43.2z M8.1,41.8v-4.3c-0.5-0.3-0.9-0.4-1-0.4
			c-0.4-0.1-0.7-0.2-1-0.2c-0.7,0-1.2,0.2-1.6,0.7C4.2,38.1,4,38.8,4,39.8c0,1.9,0.7,2.9,2.2,2.9C6.8,42.6,7.4,42.3,8.1,41.8z">
   </path>
   <path class="st0" d="M16.9,40h-5.2c0,0.9,0.2,1.5,0.5,1.9s0.9,0.6,1.7,0.6c1,0,1.6-0.3,2-1l0.9,0.4c-0.5,1-1.4,1.5-2.9,1.5
			c-1.1,0-2-0.3-2.5-0.9c-0.5-0.6-0.8-1.5-0.8-2.8c0-1.2,0.2-2.1,0.7-2.7c0.5-0.6,1.4-1,2.6-1s2,0.4,2.5,1.1
			c0.3,0.5,0.5,1.4,0.5,2.6C16.9,39.7,16.9,40,16.9,40z M15.9,39.1c0-0.8-0.1-1.3-0.4-1.7s-0.8-0.6-1.5-0.6s-1.2,0.2-1.6,0.5
			c-0.4,0.4-0.6,1-0.6,1.8H15.9z">
   </path>
   <path class="st0" d="M20.9,43.3h-0.5c-1,0-1.6-0.6-1.6-1.7v-7.7h-1.1V33h2.1v8.6c0,0.5,0.2,0.8,0.6,0.8h0.5V43.3z">
   </path>
   <path class="st0" d="M24.6,43.3h-0.5c-1,0-1.5-0.6-1.5-1.7v-4.1c0-0.1,0-0.3,0.1-0.5h-1.2v-0.9h2.1v5.4c0,0.5,0.2,0.8,0.5,0.8h0.5
			C24.6,42.3,24.6,43.3,24.6,43.3z M23.6,34.2C23.6,34.3,23.6,34.3,23.6,34.2l-1.2,0.1c-0.1,0-0.1,0-0.1-0.1v-1c0-0.1,0-0.1,0.1-0.1
			h1.1c0.1,0,0.1,0,0.1,0.1V34.2z">
   </path>
   <path class="st0" d="M31.5,36.2l-2.6,7h-1.2l-2.6-7h1.1l1.9,5.2c0.1,0.2,0.2,0.6,0.2,1.1c0-0.2,0.1-0.6,0.3-1.1l1.9-5.2H31.5z">
   </path>
   <path class="st0" d="M38.4,40h-5.2c0,0.9,0.2,1.5,0.5,1.9s0.9,0.6,1.7,0.6c1,0,1.6-0.3,2-1l0.9,0.4c-0.5,1-1.4,1.5-2.9,1.5
			c-1.1,0-2-0.3-2.5-0.9c-0.5-0.6-0.8-1.5-0.8-2.8c0-1.2,0.2-2.1,0.7-2.7c0.5-0.6,1.4-1,2.6-1c1.2,0,2,0.4,2.5,1.1
			c0.3,0.5,0.5,1.4,0.5,2.6V40z M37.3,39.1c0-0.8-0.1-1.3-0.4-1.7c-0.3-0.4-0.8-0.6-1.5-0.6s-1.2,0.2-1.6,0.5
			c-0.4,0.4-0.6,1-0.6,1.8H37.3z">
   </path>
   <path class="st0" d="M43.4,37c-0.2,0-0.4-0.1-0.6-0.1c-0.6,0-1.1,0.2-1.5,0.6l-0.4,0.3v5.3h-1v-7h0.8l0.2,0.7l0.6-0.5
			c0.4-0.3,0.8-0.4,1.3-0.4c0.2,0,0.4,0,0.6,0.1C43.4,36,43.4,37,43.4,37z">
   </path>
   <path class="st0" d="M50.6,36.2L47.3,45c-0.2,0.5-0.4,0.8-0.7,1c-0.3,0.2-0.8,0.3-1.4,0.3h-0.9v-0.9h0.9c0.4,0,0.7-0.1,0.8-0.2
			c0.1-0.1,0.3-0.3,0.4-0.7l0.5-1.2l-2.7-7.2h1.1l1.9,5.2c0,0.1,0.1,0.4,0.2,0.9c0.1-0.4,0.2-0.7,0.2-0.9l1.9-5.2L50.6,36.2
			L50.6,36.2z">
   </path>
   <path class="st0" d="M60.8,43.2H60l-0.2-0.8l-0.5,0.3c-0.7,0.5-1.3,0.7-1.8,0.7c-0.8,0-1.4-0.2-1.8-0.6c-0.5-0.5-0.7-1.2-0.7-2.1
			v-4.5h1v4.5c0,1.3,0.5,1.9,1.5,1.9c0.5,0,1-0.2,1.6-0.6l0.7-0.5v-5.3h1L60.8,43.2L60.8,43.2z">
   </path>
   <path class="st0" d="M68.5,43.2h-1v-4.5c0-1.2-0.5-1.9-1.5-1.9c-0.5,0-1,0.2-1.6,0.6l-0.7,0.5v5.3h-1v-7h0.8l0.2,0.8l0.5-0.3
			c0.7-0.5,1.3-0.7,1.8-0.7c0.8,0,1.3,0.2,1.8,0.6c0.5,0.5,0.7,1.1,0.7,2.1C68.5,38.7,68.5,43.2,68.5,43.2z">
   </path>
   <path class="st0" d="M72.6,43.3h-0.5c-1,0-1.6-0.6-1.6-1.7v-7.7h-1.1V33h2.1v8.6c0,0.5,0.2,0.8,0.6,0.8h0.5V43.3z">
   </path>
   <path class="st0" d="M76.4,43.3h-0.5c-1,0-1.5-0.6-1.5-1.7v-4.1c0-0.1,0-0.3,0.1-0.5h-1.2v-0.9h2.1v5.4c0,0.5,0.2,0.8,0.5,0.8h0.5
			V43.3z M75.3,34.2C75.3,34.3,75.3,34.3,75.3,34.2l-1.2,0.1c-0.1,0-0.1,0-0.1-0.1v-1c0-0.1,0-0.1,0.1-0.1h1.1c0.1,0,0.1,0,0.1,0.1
			V34.2z">
   </path>
   <path class="st0" d="M87.3,43.2h-1v-4.5c0-1.3-0.4-1.9-1.1-1.9c-0.5,0-1,0.2-1.7,0.7L83,37.8c0,0.2,0.1,0.5,0.1,0.9v4.5h-1v-4.5
			c0-1.3-0.4-1.9-1.2-1.9c-0.4,0-1,0.2-1.6,0.7l-0.6,0.4v5.3h-1v-7h0.8l0.2,0.8l0.5-0.3c0.7-0.5,1.3-0.7,1.7-0.7
			c0.9,0,1.5,0.4,1.9,1.1l0.5-0.4c0.4-0.3,0.7-0.5,0.9-0.5c0.3-0.1,0.7-0.2,1.1-0.2c1.4,0,2.2,0.9,2.2,2.8v4.4
			C87.5,43.2,87.3,43.2,87.3,43.2z">
   </path>
   <path class="st0" d="M91.6,43.3h-0.5c-1,0-1.5-0.6-1.5-1.7v-4.1c0-0.1,0-0.3,0.1-0.5h-1.2v-0.9h2.1v5.4c0,0.5,0.2,0.8,0.5,0.8h0.5
			V43.3z M90.6,34.2C90.6,34.3,90.6,34.3,90.6,34.2l-1.2,0.1c-0.1,0-0.1,0-0.1-0.1v-1c0-0.1,0-0.1,0.1-0.1h1.1c0.1,0,0.1,0,0.1,0.1
			V34.2z">
   </path>
   <path class="st0" d="M97.4,42.8c-0.5,0.4-1.2,0.6-2.1,0.6c-1.2,0-1.8-0.6-1.8-1.9v-3.9c0-0.1,0-0.3,0.1-0.5h-1.3v-0.9h1.2v-2.4
			l1-0.3v2.7H97l-0.3,0.9h-2.2v4.4c0,0.4,0.1,0.7,0.3,0.9c0.2,0.2,0.5,0.2,0.9,0.2s0.7-0.1,1.1-0.4L97.4,42.8z">
   </path>
   <path class="st0" d="M104.4,40h-5.2c0,0.9,0.2,1.5,0.5,1.9s0.9,0.6,1.7,0.6c1,0,1.6-0.3,2-1l0.9,0.4c-0.5,1-1.4,1.5-2.9,1.5
			c-1.1,0-2-0.3-2.5-0.9c-0.5-0.6-0.8-1.5-0.8-2.8c0-1.2,0.2-2.1,0.7-2.7c0.5-0.6,1.4-1,2.6-1s2,0.4,2.5,1.1
			c0.3,0.5,0.5,1.4,0.5,2.6C104.4,39.7,104.4,40,104.4,40z M103.3,39.1c0-0.8-0.1-1.3-0.4-1.7s-0.8-0.6-1.5-0.6s-1.2,0.2-1.6,0.5
			c-0.4,0.4-0.6,1-0.6,1.8H103.3z">
   </path>
   <path class="st0" d="M111.8,43.2h-0.6l-0.3-0.6c-0.6,0.5-1.3,0.8-2,0.8c-0.9,0-1.7-0.3-2.2-0.8c-0.7-0.6-1-1.6-1-2.9
			c0-2.5,1-3.7,3.1-3.7c0.7,0,1.4,0.2,2.1,0.7c-0.1-0.2-0.1-0.4-0.1-0.6V33h1V43.2z M110.8,41.8v-4.3c-0.5-0.3-0.9-0.4-1-0.4
			c-0.4-0.1-0.7-0.2-1-0.2c-0.7,0-1.2,0.2-1.6,0.7c-0.3,0.5-0.5,1.2-0.5,2.2c0,1.9,0.7,2.9,2.2,2.9C109.4,42.6,110,42.3,110.8,41.8z
			">
   </path>
  </g>
 </g>
</svg>